<svg xmlns="http://www.w3.org/2000/svg" xmlns:xlink="http://www.w3.org/1999/xlink" version="1.1" x="0px" y="0px" viewBox="0 0 90 90" style="enable-background:new 0 0 90 90;" xml:space="preserve"><path d="M27.288086,75.010254h35.423828c0.552734,0,1-0.447754,1-1V40.395996l3.03125,2.068359  c0.166992,0.11377,0.364258,0.173828,0.563477,0.173828c0.061523,0,0.124023-0.005859,0.185547-0.017578  c0.260742-0.048828,0.491211-0.199707,0.640625-0.418945l4.854492-7.115234c0.311523-0.456055,0.193359-1.078125-0.262695-1.389648  L45.563477,15.163574c-0.339844-0.231445-0.787109-0.231445-1.126953,0L17.275391,33.696777  c-0.456055,0.311523-0.574219,0.933594-0.262695,1.389648l4.854492,7.115234c0.149414,0.219238,0.379883,0.370117,0.640625,0.418945  c0.259766,0.049316,0.530273-0.007813,0.749023-0.15625l3.03125-2.068359v33.614258  C26.288086,74.5625,26.735352,75.010254,27.288086,75.010254z M61.711914,73.010254H28.288086V39.031311L45,27.62793  l16.711914,11.403381V73.010254z M22.956055,40.248535l-3.727539-5.463379L45,17.200195l25.771484,17.584961l-3.727539,5.463379  L45.563477,25.591309C45.393555,25.475586,45.197266,25.41748,45,25.41748s-0.393555,0.058105-0.563477,0.173828  L22.956055,40.248535z"></path><path d="M36.671875,45.906738v14.656738c0,0.552246,0.447266,1,1,1h14.65625c0.552734,0,1-0.447754,1-1V45.906738  c0-0.552246-0.447266-1-1-1h-14.65625C37.119141,44.906738,36.671875,45.354492,36.671875,45.906738z M46,46.906738h5.328125  v5.328613H46V46.906738z M46,54.235352h5.328125v5.328125H46V54.235352z M38.671875,46.906738H44v5.328613h-5.328125V46.906738z   M38.671875,54.235352H44v5.328125h-5.328125V54.235352z"></path></svg>