<svg xmlns="http://www.w3.org/2000/svg" xmlns:xlink="http://www.w3.org/1999/xlink" version="1.1" x="0px" y="0px" viewBox="-49 141 512 512" style="enable-background:new -49 141 512 512;" xml:space="preserve"><g><g><g><path d="M212,422c41.4,0,75-33.6,75-75v-30v-25H137v25v30C137,388.4,170.6,422,212,422z M202,372h20     c2.8,0,5,2.2,5,5s-2.2,5-5,5h-20c-2.8,0-5-2.2-5-5S199.2,372,202,372z"></path><path d="M292,282h4.9c-2-35.7-25.8-65.9-59.9-76.3v1.3c0,13.8-11.2,25-25,25s-25-11.2-25-25v-1.3     c-34,10.4-57.8,40.6-59.9,76.3h4.9H292z"></path><path d="M173.1,519.9l30.8-23.1L160.3,462c-9,0.1-17.8,1.4-26.1,3.7L173.1,519.9z"></path><rect x="57" y="592" width="50" height="30"></rect><polygon points="53.8,552 53.8,552 47,552 47,582 107,582 107,552 53.8,552    "></polygon><path d="M289.8,465.7c-8.4-2.3-17.1-3.6-26.1-3.7l-43.5,34.8l30.8,23.1L289.8,465.7z"></path><path d="M212,222L212,222c8.3,0,15-6.7,15-15v-20c0-8.3-6.7-15-15-15s-15,6.7-15,15v20     C197,215.3,203.7,222,212,222z"></path><path d="M257,454.6v-35.5c-13.1,8.2-28.5,12.9-45,12.9s-31.9-4.8-45-12.9v35.5l45,36L257,454.6z"></path><path d="M297,322v25v5h5c8.3,0,15-6.7,15-15s-6.7-15-15-15H297z"></path><path d="M122,322c-8.3,0-15,6.7-15,15s6.7,15,15,15h5v-5c0,0,0,0,0,0v-25H122z"></path><polygon points="370.2,552 370.2,552 317,552 317,582 377,582 377,552 370.2,552    "></polygon><path d="M317,542h47c-8.3-34-32.7-60.9-64.2-73l-43.7,60.9c-0.8,1.1-2,1.8-3.3,2c-0.3,0-0.5,0.1-0.8,0.1     c-1.1,0-2.1-0.3-3-1l-37-27.8L175,531c-0.9,0.7-1.9,1-3,1c-0.3,0-0.5,0-0.8-0.1c-1.3-0.2-2.5-0.9-3.3-2L124.2,469     c-31.5,12.1-55.9,39-64.2,73h47v-5c0-2.8,2.2-5,5-5s5,2.2,5,5v10v40v35h190v-35v-40v-10c0-2.8,2.2-5,5-5s5,2.2,5,5V542z M212,597     c-5.5,0-10-4.5-10-10s4.5-10,10-10c5.5,0,10,4.5,10,10S217.5,597,212,597z M212,557c-5.5,0-10-4.5-10-10s4.5-10,10-10     c5.5,0,10,4.5,10,10S217.5,557,212,557z"></path><rect x="317" y="592" width="50" height="30"></rect><path d="M102,292h25.1v-10H102c-2.8,0-5,2.2-5,5S99.2,292,102,292z"></path><path d="M322,292c2.8,0,5-2.2,5-5s-2.2-5-5-5h-25.1v10H322z"></path></g></g></g></svg>