<svg xmlns="http://www.w3.org/2000/svg" data-name="Layer 1" viewBox="0 0 68 68" x="0px" y="0px"><path d="M11.7,51.47a3.3,3.3,0,1,0,3.3,3.3A3.3,3.3,0,0,0,11.7,51.47Z"></path><path d="M3.65,47.74c.09-.11.19-.21.29-.31a6.88,6.88,0,0,1,.54-.54l.3-.27c.23-.2.48-.38.73-.56l.18-.14c.32-.22.65-.41,1-.6L7,45.18c.25-.12.51-.24.77-.34l.39-.15.74-.23.42-.11q.41-.09.81-.15l.38-.06c.4,0,.81-.07,1.22-.07s.82,0,1.22.07l.38.06q.42.06.81.15l.42.11.74.23.39.15a7.75,7.75,0,0,1,.78.35l.28.13c.34.19.67.38,1,.6l.18.13c.25.18.5.37.73.57l.3.27c.19.17.37.35.54.53s.2.21.29.32.33.39.48.59l.17.21V13.23a8.7,8.7,0,0,0-17.4,0V48.54c0-.07.11-.13.17-.2A7,7,0,0,1,3.65,47.74Z"></path><polygon points="36.4 28.02 22.4 22.5 22.4 52.92 33.09 45.93 36.4 28.02"></polygon><path d="M62.64,13.77H51.08L39.16,27.07,65,39.65V16.13A2.36,2.36,0,0,0,62.64,13.77Z"></path><path d="M37.25,26.2,48.39,13.77h-26v6.66a1.19,1.19,0,0,1,.37.06Z"></path><polygon points="40.35 53.49 52.55 35.81 38.27 28.86 35.06 46.29 40.35 53.49"></polygon><path d="M35.91,63.46H62.64A2.36,2.36,0,0,0,65,61.1V41.87L54.37,36.7Z"></path><path d="M33.75,47.89,22.37,55.33a10.68,10.68,0,0,1-4.45,8.13H33.47l5.68-8.23Z"></path><path d="M11.7,46.07a8.7,8.7,0,0,0,0,17.4h.2a8.7,8.7,0,0,0-.16-17.39Zm0,14a5.3,5.3,0,1,1,5.3-5.3A5.31,5.31,0,0,1,11.7,60.07Z"></path></svg>