<svg xmlns="http://www.w3.org/2000/svg" viewBox="0 0 18 27" fill="none" x="0px" y="0px"><path fill-rule="evenodd" clip-rule="evenodd" d="M6 10H2C0.895508 10 0 9.10461 0 8V5.53479C0 4.58362 0.699219 3.79944 1.52051 3.31921C2.26367 2.88464 2.88428 2.26367 3.31934 1.52063C3.79932 0.699463 4.5835 0 5.53467 0H16C17.1045 0 18 0.895386 18 2V8C18 9.10461 17.1045 10 16 10H12V24C12 25.1046 11.1045 26 10 26H8C6.89551 26 6 25.1046 6 24V10ZM2 8V5.54321C2.00244 5.53601 2.00732 5.52332 2.01758 5.50488C2.02686 5.48804 2.04053 5.46655 2.06006 5.44006C2.14502 5.3252 2.30273 5.17871 2.52979 5.04565C3.56982 4.43774 4.4375 3.56995 5.04541 2.53027C5.17871 2.30273 5.3252 2.14502 5.43994 2.06006C5.49561 2.0188 5.5293 2.00439 5.54346 2H16V8H2ZM10 10H8V24H10V10Z" transform="translate(0 0.435059)" fill="black"></path></svg>