<svg xmlns="http://www.w3.org/2000/svg" xmlns:xlink="http://www.w3.org/1999/xlink" version="1.1" x="0px" y="0px" viewBox="0 0 100 100" style="enable-background:new 0 0 100 100;" xml:space="preserve"><g><path d="M65,46c-0.4,0-1.1,0-2,0V24h-0.1c0.1-0.3,0.1-0.7,0.1-1c0-10.7-25.1-11-28-11S7,12.3,7,23c0,0.3,0,0.7,0.1,1H7v39   c0,8.1,15.1,11,28,11c0.7,0,1.3,0,2,0v3c0,10.7,25.1,11,28,11s28-0.3,28-11V57C93,46.3,67.9,46,65,46z M83.9,57   c-2.8,1.3-9.3,3-18.9,3s-16.1-1.7-18.9-3c2.8-1.3,9.3-3,18.9-3S81.1,55.7,83.9,57z M85,66.3c-1.7,1.4-8.8,3.7-20,3.7   s-18.3-2.3-20-3.7v-1.2c7.6,2.7,18.2,2.9,20,2.9s12.4-0.1,20-2.9V66.3z M15,51.1c7.6,2.7,18.2,2.9,20,2.9c0.4,0,1.4,0,2.8-0.1   c-0.3,0.6-0.6,1.3-0.7,2c-0.7,0-1.4,0-2.1,0c-11.2,0-18.3-2.3-20-3.7V51.1z M15,41.1c7.6,2.7,18.2,2.9,20,2.9s12.4-0.1,20-2.9v1.2   c-1.7,1.4-8.8,3.7-20,3.7s-18.3-2.3-20-3.7V41.1z M15,31.1c7.6,2.7,18.2,2.9,20,2.9s12.4-0.1,20-2.9v1.2c-1.7,1.4-8.8,3.7-20,3.7   s-18.3-2.3-20-3.7V31.1z M35,20c9.6,0,16.1,1.7,18.9,3c-2.8,1.3-9.3,3-18.9,3s-16.1-1.7-18.9-3C18.9,21.7,25.4,20,35,20z M15,62.3   v-1.2c5.5,2,13.1,2.9,20,2.9c0.7,0,1.3,0,2,0v2c-0.7,0-1.3,0-2,0C23.8,66,16.7,63.7,15,62.3z M45,76.3v-1.2   c7.6,2.7,18.2,2.9,20,2.9s12.4-0.1,20-2.9v1.2c-1.7,1.4-8.8,3.7-20,3.7S46.7,77.7,45,76.3z"></path></g></svg>