<svg xmlns="http://www.w3.org/2000/svg" xmlns:xlink="http://www.w3.org/1999/xlink" version="1.1" x="0px" y="0px" viewBox="0 0 90 90" style="enable-background:new 0 0 90 90;" xml:space="preserve"><path d="M55.821289,27.791016v4.838867c0,0.552246,0.447266,1,1,1h8.805664c0.552734,0,1-0.447754,1-1v-4.838867  c0-2.979004-2.423828-5.402832-5.402344-5.402832C58.245117,22.388184,55.821289,24.812012,55.821289,27.791016z   M60.224609,31.629883h-2.40332v-1.654785h2.40332V31.629883z M60.224609,27.975098h-2.40332v-0.184082  c0-1.526245,1.016479-2.805542,2.40332-3.235657V27.975098z M62.224609,24.555481  c1.386169,0.430237,2.402344,1.709473,2.402344,3.235535v0.184082h-2.402344V24.555481z M62.224609,29.975098h2.402344v1.654785  h-2.402344V29.975098z"></path><path d="M11.635742,36.081543h7.306641v11.284241l-7.870117,5.370056c-0.21875,0.149414-0.370117,0.379883-0.418945,0.640625  c-0.049805,0.260742,0.006836,0.530273,0.15625,0.749023l4.267578,6.253906c0.311523,0.456055,0.935547,0.57373,1.389648,0.262695  l2.475586-1.689209v19.17749c0,0.552246,0.447266,1,1,1h31.134766h22.250977c0.552734,0,1-0.447754,1-1V28.601196l0.40918,0.279175  c0.171875,0.117676,0.368164,0.173828,0.5625,0.173828c0.319336,0,0.633789-0.152832,0.827148-0.436523l3.063477-4.489746  c0.149414-0.21875,0.206055-0.488281,0.15625-0.749023c-0.048828-0.260742-0.200195-0.491211-0.418945-0.640625L61.788086,11.043457  c-0.339844-0.231445-0.787109-0.231445-1.126953,0L43.521484,22.738281c-0.21875,0.149414-0.370117,0.379883-0.418945,0.640625  c-0.049805,0.260742,0.006836,0.530273,0.15625,0.749023l3.063477,4.489746c0.311523,0.456543,0.935547,0.574219,1.389648,0.262695  l0.408203-0.278503v1.514343H32.93457V11.869629c0-0.552246-0.447266-1-1-1h-3.103516c-0.552734,0-1,0.447754-1,1v0.640137  H14.604492c-0.552734,0-1,0.447754-1,1v9.878418c0,0.552246,0.447266,1,1,1h13.226563v5.728027H11.635742  c-0.552734,0-1,0.447754-1,1v3.965332C10.635742,35.633789,11.083008,36.081543,11.635742,36.081543z M39.738281,77.130371H31.28125  v-4.518066h2.724609c0.552734,0,1-0.447754,1-1v-5.276855c0-0.552246-0.447266-1-1-1H31.28125v-2.981445  c0-2.331543,1.896484-4.228516,4.228516-4.228516s4.228516,1.896973,4.228516,4.228516V77.130371z M31.28125,70.612305v-3.276855  h1.724609v3.276855H31.28125z M50.077148,77.130371h-8.338867V62.354004c0-3.43457-2.793945-6.228516-6.228516-6.228516  s-6.228516,2.793945-6.228516,6.228516v14.776367h-8.338867V57.588135l14.567383-9.940186l14.567383,9.940186V77.130371z   M72.328125,77.130371h-7.837891V58.060059h7.837891V77.130371z M72.328125,56.060059h-8.837891c-0.552734,0-1,0.447754-1,1  v20.070313H52.077148v-18.17749l2.475586,1.689209c0.171875,0.117676,0.368164,0.173828,0.5625,0.173828  c0.319336,0,0.633789-0.152832,0.827148-0.436523l4.267578-6.253906c0.149414-0.21875,0.206055-0.488281,0.15625-0.749023  c-0.048828-0.260742-0.200195-0.491211-0.418945-0.640625l-9.827148-6.705383V27.237183l11.104492-7.577026l11.103516,7.576355  V56.060059z M47.411133,26.664551l-1.936523-2.837891l15.75-10.746582l15.75,10.746582l-1.936523,2.837891l-13.25-9.041016  c-0.169922-0.115723-0.366211-0.173828-0.563477-0.173828s-0.393555,0.058105-0.563477,0.173828L47.411133,26.664551z   M57.994141,53.824219l-3.140625,4.602051L36.073242,45.611328c-0.169922-0.115723-0.366211-0.173828-0.563477-0.173828  s-0.393555,0.058105-0.563477,0.173828L16.166016,58.42627l-3.140625-4.602051l22.484375-15.341797L57.994141,53.824219z   M20.942383,46.00116v-9.919617h27.177734v8.584229l-12.046875-8.219971c-0.339844-0.231445-0.787109-0.231445-1.126953,0  L20.942383,46.00116z M29.831055,12.869629h1.103516v17.246582h-1.103516V12.869629z M15.604492,22.388184v-7.878418h12.226563  v7.878418H15.604492z M12.635742,32.116211h35.484375v1.965332H12.635742V32.116211z"></path><path d="M66.421875,72.01709c0.552734,0,1-0.447754,1-1v-6.983398c0-0.552246-0.447266-1-1-1s-1,0.447754-1,1v6.983398  C65.421875,71.569336,65.869141,72.01709,66.421875,72.01709z"></path></svg>