<svg xmlns="http://www.w3.org/2000/svg" xmlns:xlink="http://www.w3.org/1999/xlink" version="1.1" x="0px" y="0px" viewBox="0 0 90 90" style="enable-background:new 0 0 90 90;" xml:space="preserve"><rect x="30.191406" y="51.810303" width="10.375" height="16.329956"></rect><path d="M49.946228,68.140259V48.598083l-14.567322-9.940186l-14.56842,9.940857v19.541504h7.38092V50.810303  c0-0.552307,0.447205-1,1-1h12.375c0.552673,0,1,0.447693,1,1v17.329956H49.946228z"></path><rect x="65.307617" y="51.810303" width="5.741211" height="7.656189"></rect><path d="M55.811523,51.389404c-0.149414,0.219177-0.379944,0.370056-0.640625,0.418884  c-0.26178,0.049316-0.530273-0.006775-0.749084-0.156189l-2.475586-1.689331v18.17749h19.1026v-6.673767h-6.741211  c-0.552795,0-1-0.447693-1-1v-9.656189c0-0.552307,0.447205-1,1-1h6.741211V38.872009l-13.274414-9.0578l-9.187988,6.269653  l11.229004,7.661926c0.455994,0.311523,0.574158,0.933594,0.262695,1.389587L55.811523,51.389404z"></path><path d="M57.210876,27.777466c0.339844-0.231384,0.787109-0.231384,1.126953,0l16.191467,11.048401l2.576111-3.775879  l-19.330994-13.19043L42.756897,32.106079l4.055298,2.76709L57.210876,27.777466z"></path><path d="M34.81543,36.621277c0.339783-0.231506,0.787048-0.231506,1.126892,0l18.780273,12.81488l3.139709-4.60199  L46.421509,37.02771c-0.142395-0.054443-0.268799-0.139038-0.376221-0.256714l-5.604187-3.823914l-0.000305-0.000305  l-5.06189-3.453918L12.89447,44.834167l3.140625,4.60199L34.81543,36.621277z"></path></svg>