<svg xmlns="http://www.w3.org/2000/svg" xmlns:xlink="http://www.w3.org/1999/xlink" version="1.1" x="0px" y="0px" viewBox="0 0 90 90" style="enable-background:new 0 0 90 90;" xml:space="preserve"><path d="M19.228516,34.785095l3.727478,5.462891l21.48053-14.657227C44.606384,25.474609,44.802673,25.41687,45,25.41687  c0.197205,0,0.393494,0.057739,0.563416,0.173889l21.480469,14.657227l3.727539-5.462891L45,17.200073L19.228516,34.785095z"></path><path d="M36.253906,51.259705v5.673767h4.909119c0.552795,0,1,0.447327,1,1v4.909241h5.673889v-4.909241c0-0.552673,0.447205-1,1-1  h4.909058v-5.673767h-4.909058c-0.552795,0-1-0.447205-1-1v-4.909241h-5.673889v4.909241c0,0.552795-0.447205,1-1,1H36.253906z"></path><path d="M28.288025,39.030762v33.979919h33.423889V39.030762L45,27.627869L28.288025,39.030762z M49.836914,44.350464v4.909241  h4.909058c0.552856,0,1,0.447266,1,1v7.673767c0,0.552795-0.447144,1-1,1h-4.909058v4.909241c0,0.552795-0.447327,1-1,1h-7.673889  c-0.552734,0-1-0.447205-1-1v-4.909241h-4.909119c-0.552795,0-1-0.447205-1-1v-7.673767c0-0.552734,0.447205-1,1-1h4.909119  v-4.909241c0-0.552673,0.447266-1,1-1h7.673889C49.389587,43.350464,49.836914,43.797791,49.836914,44.350464z"></path></svg>