<svg xmlns="http://www.w3.org/2000/svg" xmlns:xlink="http://www.w3.org/1999/xlink" version="1.1" x="0px" y="0px" viewBox="0 0 90 90" style="enable-background:new 0 0 90 90;" xml:space="preserve"><path d="M15.875,60.852539c0.149414,0.219238,0.379883,0.370117,0.640625,0.418945  c0.259766,0.049316,0.529785-0.007324,0.749023-0.15625l2.475586-1.689209v19.17749c0,0.552246,0.447754,1,1,1h31.135254h21.102539  c0.552246,0,1-0.447754,1-1V48.807129h3.587891c0.552246,0,1-0.447754,1-1v-4.941406c0-0.552246-0.447754-1-1-1h-3.587891v-18.77832  h3.587891c0.552246,0,1-0.447754,1-1v-4.311035c0-0.552246-0.447754-1-1-1h-3.246277l-15.20929-6.303711  c-0.245117-0.101563-0.520508-0.101563-0.765625,0l-15.209778,6.303711h-3.246277c-0.552246,0-1,0.447754-1,1v4.311035  c0,0.552246,0.447754,1,1,1h2.924316v17.886292l-5.941895-4.05426c-0.339844-0.231445-0.787109-0.231445-1.126953,0  l-2.886719,1.969666V13.637695c0-0.552246-0.447754-1-1-1h-3.953125c-0.552246,0-1,0.447754-1,1v0.896973H14.885254  c-0.552246,0-1,0.447754-1,1V25.62207c0,0.552246,0.447754,1,1,1h12.019043v16.329041L11.870605,53.208984  c-0.456543,0.311523-0.57373,0.933594-0.262695,1.389648L15.875,60.852539z M41.495605,77.603516H31.120117V66.972656h1.474609  v6.328125c0,0.552246,0.447754,1,1,1s1-0.447754,1-1v-7.328125c0-0.552246-0.447754-1-1-1h-2.474609v-3.699219h10.375488V77.603516z   M50.875488,77.603516h-7.379883V60.273438c0-0.552246-0.447754-1-1-1H30.120117c-0.552246,0-1,0.447754-1,1v17.330078h-7.379883  V58.061279l14.567383-9.940186l14.567871,9.940247V77.603516z M71.978027,70.663086h-6.948242v-7.829102h6.948242V70.663086z   M71.978027,60.833984h-7.948242c-0.552246,0-1,0.447754-1,1v9.829102c0,0.552246,0.447754,1,1,1h7.948242v4.94043H52.875488  v-18.17749l2.475586,1.689209c0.166992,0.11377,0.36377,0.173828,0.563477,0.173828c0.062012,0,0.124023-0.005859,0.185547-0.017578  c0.260742-0.048828,0.491211-0.199707,0.640625-0.418945l4.26709-6.253906c0.311035-0.456055,0.193848-1.078125-0.262695-1.389648  l-6.451355-4.401855h17.684265V60.833984z M76.565918,43.865723v2.941406H51.362549l-4.310974-2.941406H76.565918z   M44.812988,41.865723v-18.77832h27.165039v18.77832H44.812988z M58.727539,12.479004l10.36853,4.297363H48.358704  L58.727539,12.479004z M40.888672,21.087402v-2.311035h33.229004c0.000793,0,0.001648,0.000488,0.002441,0.000488  c0.001099,0,0.002197-0.000488,0.003296-0.000488h2.442505v2.311035H40.888672z M28.904297,14.637695h1.953125v25.616089  l-1.953125,1.332642V14.637695z M15.885254,24.62207v-8.087402h11.019043v8.087402H15.885254z M36.307617,38.956055  l22.484375,15.341309l-3.139648,4.602051l-18.78125-12.814941c-0.169922-0.115723-0.366699-0.173828-0.563477-0.173828  s-0.393555,0.058105-0.563477,0.173828L16.963379,58.899414l-3.139648-4.602051L36.307617,38.956055z"></path><path d="M58.727539,24.967285c-3.742676,0-6.787598,3.044922-6.787598,6.787109v6.360352c0,0.552246,0.447754,1,1,1h11.574707  c0.552246,0,1-0.447754,1-1v-6.360352C65.514648,28.012207,62.469727,24.967285,58.727539,24.967285z M57.727539,37.114746  h-3.787598v-2.803711h3.787598V37.114746z M57.727539,32.311035h-3.787598v-0.556641  c0-2.296326,1.626953-4.216736,3.787598-4.678345V32.311035z M63.514648,37.114746h-3.787109v-2.803711h3.787109V37.114746z   M63.514648,32.311035h-3.787109V27.07605c2.160522,0.461609,3.787109,2.382019,3.787109,4.678345V32.311035z"></path></svg>