<svg xmlns="http://www.w3.org/2000/svg" xmlns:xlink="http://www.w3.org/1999/xlink" version="1.1" x="0px" y="0px" viewBox="0 0 100 100" style="enable-background:new 0 0 100 100;" xml:space="preserve"><path d="M89,88h-3.8916016v-4.7877808c2.6157227-0.4736328,4.6074219-2.7631226,4.6074219-5.5139771  c0-2.2247925-1.3059082-4.1455688-3.1884766-5.0510254c1.2835693-0.8084106,2.1445312-2.2282715,2.1445312-3.854248  c0-2.5166016-2.046875-4.5634766-4.5634766-4.5634766s-4.5634766,2.046875-4.5634766,4.5634766  c0,1.6258545,0.8608398,3.0456543,2.1442871,3.854126C79.8060303,73.5524902,78.5,75.4733276,78.5,77.6982422  c0,2.7509766,1.9919434,5.0404663,4.6083984,5.5139771V88H73.125V30.6669922c0-0.5527344-0.4472656-1-1-1h-4.921875V17.9423828  c0-0.4003906-0.2392578-0.7626953-0.6074219-0.9199219l-16.1875-6.9013672c-0.2519531-0.1074219-0.5332031-0.1074219-0.7851562,0  l-16.1875,6.9013672c-0.3681641,0.1572266-0.6074219,0.5195312-0.6074219,0.9199219v11.7246094H27.875c-0.5527344,0-1,0.4472656-1,1  V88h-9.9833984v-4.7877808C19.5080566,82.7387085,21.5,80.4492188,21.5,77.6982422  c0-2.2249146-1.3060303-4.145752-3.189209-5.0511475c1.2834473-0.8084717,2.1442871-2.2282715,2.1442871-3.854126  c0-2.5166016-2.046875-4.5634766-4.5634766-4.5634766s-4.5634766,2.046875-4.5634766,4.5634766  c0,1.6259766,0.8609619,3.0458374,2.1445312,3.854248c-1.8825684,0.9055176-3.1884766,2.8262329-3.1884766,5.0510254  c0,2.7508545,1.9916992,5.0403442,4.6074219,5.5139771V88H11c-0.5527344,0-1,0.4472656-1,1s0.4472656,1,1,1h78  c0.5527344,0,1-0.4472656,1-1S89.5527344,88,89,88z M84.1083984,66.2294922c1.4130859,0,2.5634766,1.1503906,2.5634766,2.5634766  s-1.1503906,2.5634766-2.5634766,2.5634766s-2.5634766-1.1503906-2.5634766-2.5634766S82.6953125,66.2294922,84.1083984,66.2294922z   M80.5,77.6982422c0-1.9892578,1.6191406-3.6074219,3.6083984-3.6074219s3.6074219,1.6181641,3.6074219,3.6074219  s-1.6181641,3.6083984-3.6074219,3.6083984S80.5,79.6875,80.5,77.6982422z M15.8916016,66.2294922  c1.4130859,0,2.5634766,1.1503906,2.5634766,2.5634766s-1.1503906,2.5634766-2.5634766,2.5634766  s-2.5634766-1.1503906-2.5634766-2.5634766S14.4785156,66.2294922,15.8916016,66.2294922z M12.2841797,77.6982422  c0-1.9892578,1.6181641-3.6074219,3.6074219-3.6074219S19.5,75.7089844,19.5,77.6982422s-1.6191406,3.6083984-3.6083984,3.6083984  S12.2841797,79.6875,12.2841797,77.6982422z M34.828125,18.6035156l15.1875-6.4755859l15.1875,6.4755859v11.0634766h-30.375  V18.6035156z M28.875,31.6669922h42.25V88h-4.7949219v-8.3017578c0-0.5527344-0.4472656-1-1-1h-6.3232422  c-0.5527344,0-1,0.4472656-1,1V88h-3.8447266v-8.3017578c0-0.5527344-0.4472656-1-1-1h-6.3242188c-0.5527344,0-1,0.4472656-1,1V88  h-3.8134766v-8.3017578c0-0.5527344-0.4472656-1-1-1h-6.3232422c-0.5527344,0-1,0.4472656-1,1V88H28.875V31.6669922z M64.3300781,88  h-4.3232422v-7.3017578h4.3232422V88z M52.1621094,88h-4.3242188v-7.3017578h4.3242188V88z M40.0244141,88h-4.3232422v-7.3017578  h4.3232422V88z"></path><path d="M34.7011719,57.890625h6.3232422c0.5527344,0,1-0.4472656,1-1V50.71875c0-0.5527344-0.4472656-1-1-1h-6.3232422  c-0.5527344,0-1,0.4472656-1,1v6.171875C33.7011719,57.4433594,34.1484375,57.890625,34.7011719,57.890625z M35.7011719,51.71875  h4.3232422v4.171875h-4.3232422V51.71875z"></path><path d="M34.7011719,45.7841797h6.3232422c0.5527344,0,1-0.4472656,1-1v-6.171875c0-0.5527344-0.4472656-1-1-1h-6.3232422  c-0.5527344,0-1,0.4472656-1,1v6.171875C33.7011719,45.3369141,34.1484375,45.7841797,34.7011719,45.7841797z   M35.7011719,39.6123047h4.3232422v4.171875h-4.3232422V39.6123047z"></path><path d="M59.0068359,57.890625h6.3232422c0.5527344,0,1-0.4472656,1-1V50.71875c0-0.5527344-0.4472656-1-1-1h-6.3232422  c-0.5527344,0-1,0.4472656-1,1v6.171875C58.0068359,57.4433594,58.4541016,57.890625,59.0068359,57.890625z M60.0068359,51.71875  h4.3232422v4.171875h-4.3232422V51.71875z"></path><path d="M34.7011719,69.9960938h6.3232422c0.5527344,0,1-0.4472656,1-1v-6.171875c0-0.5527344-0.4472656-1-1-1h-6.3232422  c-0.5527344,0-1,0.4472656-1,1v6.171875C33.7011719,69.5488281,34.1484375,69.9960938,34.7011719,69.9960938z   M35.7011719,63.8242188h4.3232422v4.171875h-4.3232422V63.8242188z"></path><path d="M46.8378906,57.890625h6.3242188c0.5527344,0,1-0.4472656,1-1V50.71875c0-0.5527344-0.4472656-1-1-1h-6.3242188  c-0.5527344,0-1,0.4472656-1,1v6.171875C45.8378906,57.4433594,46.2851562,57.890625,46.8378906,57.890625z M47.8378906,51.71875  h4.3242188v4.171875h-4.3242188V51.71875z"></path><path d="M46.8378906,45.7841797h6.3242188c0.5527344,0,1-0.4472656,1-1v-6.171875c0-0.5527344-0.4472656-1-1-1h-6.3242188  c-0.5527344,0-1,0.4472656-1,1v6.171875C45.8378906,45.3369141,46.2851562,45.7841797,46.8378906,45.7841797z   M47.8378906,39.6123047h4.3242188v4.171875h-4.3242188V39.6123047z"></path><path d="M46.8378906,69.9960938h6.3242188c0.5527344,0,1-0.4472656,1-1v-6.171875c0-0.5527344-0.4472656-1-1-1h-6.3242188  c-0.5527344,0-1,0.4472656-1,1v6.171875C45.8378906,69.5488281,46.2851562,69.9960938,46.8378906,69.9960938z   M47.8378906,63.8242188h4.3242188v4.171875h-4.3242188V63.8242188z"></path><path d="M59.0068359,69.9960938h6.3232422c0.5527344,0,1-0.4472656,1-1v-6.171875c0-0.5527344-0.4472656-1-1-1h-6.3232422  c-0.5527344,0-1,0.4472656-1,1v6.171875C58.0068359,69.5488281,58.4541016,69.9960938,59.0068359,69.9960938z   M60.0068359,63.8242188h4.3232422v4.171875h-4.3232422V63.8242188z"></path><path d="M59.0068359,45.7841797h6.3232422c0.5527344,0,1-0.4472656,1-1v-6.171875c0-0.5527344-0.4472656-1-1-1h-6.3232422  c-0.5527344,0-1,0.4472656-1,1v6.171875C58.0068359,45.3369141,58.4541016,45.7841797,59.0068359,45.7841797z   M60.0068359,39.6123047h4.3232422v4.171875h-4.3232422V39.6123047z"></path><path d="M50.1074219,16.0693359h-0.2148438c-2.9423828,0-5.3359375,2.3935547-5.3359375,5.3359375  s2.3935547,5.3369141,5.3359375,5.3369141h0.2148438c2.9423828,0,5.3359375-2.3945312,5.3359375-5.3369141  S53.0498047,16.0693359,50.1074219,16.0693359z M50.1074219,24.7421875h-0.2148438  c-1.8398438,0-3.3359375-1.4970703-3.3359375-3.3369141s1.4960938-3.3359375,3.3359375-3.3359375h0.2148438  c1.8398438,0,3.3359375,1.4960938,3.3359375,3.3359375S51.9472656,24.7421875,50.1074219,24.7421875z"></path></svg>