<svg xmlns="http://www.w3.org/2000/svg" xmlns:xlink="http://www.w3.org/1999/xlink" version="1.1" x="0px" y="0px" viewBox="0 0 90 90" style="enable-background:new 0 0 90 90;" xml:space="preserve"><path d="M78.50293,69.98877c0-0.552246-0.447266-1-1-1h-2.074219V47.092773c0-0.302246-0.136719-0.587891-0.371094-0.777832  L59.572266,33.804199c-0.300781-0.242188-0.713867-0.291016-1.05957-0.124512  c-0.347656,0.166016-0.569336,0.51709-0.569336,0.902344v9.703613L44.969727,33.804199  c-0.300781-0.242188-0.713867-0.291016-1.05957-0.124512c-0.347656,0.166016-0.569336,0.51709-0.569336,0.902344v9.352539  l-4.796875-3.875V14.838379c0-0.552246-0.447266-1-1-1h-7.371094c-0.552734,0-1,0.447754-1,1v29.446777l-5.040039-4.071777v-25.375  c0-0.552246-0.447266-1-1-1h-7.561523c-0.552734,0-1,0.447754-1,1V68.98877H12.49707c-0.552734,0-1,0.447754-1,1v5.172852  c0,0.552246,0.447266,1,1,1H77.50293c0.552734,0,1-0.447754,1-1V69.98877z M16.571289,15.838379h5.561523v24.852539  c0,0.302246,0.136719,0.587891,0.371094,0.777832l7.040039,5.687988c0.299805,0.241211,0.712891,0.289551,1.05957,0.124512  c0.347656-0.166016,0.569336-0.51709,0.569336-0.902344V15.838379h5.371094v24.69873c0,0.302246,0.136719,0.587891,0.37207,0.777832  l6.796875,5.490723c0.297852,0.241699,0.710938,0.289551,1.058594,0.124512c0.347656-0.166016,0.569336-0.51709,0.569336-0.902344  v-9.352539l12.973633,10.481445c0.298828,0.241211,0.711914,0.289551,1.05957,0.124512  c0.347656-0.166016,0.569336-0.51709,0.569336-0.902344v-9.703613l13.485352,10.89502V68.98877h-3.243164V52.285645  c0-0.552246-0.447266-1-1-1H48.325195c-0.552734,0-1,0.447754-1,1V68.98877h-4.650391V52.285645c0-0.552246-0.447266-1-1-1  H20.814453c-0.552734,0-1,0.447754-1,1V68.98877h-3.243164V15.838379z M68.185547,53.285645V68.98877H49.325195V53.285645H68.185547  z M40.674805,53.285645V68.98877H21.814453V53.285645H40.674805z M76.50293,74.161621H13.49707V70.98877H76.50293V74.161621z"></path><path d="M25.214844,57.691895h12.05957c0.552734,0,1-0.447754,1-1s-0.447266-1-1-1h-12.05957c-0.552734,0-1,0.447754-1,1  S24.662109,57.691895,25.214844,57.691895z"></path><path d="M25.214844,66.237793h12.05957c0.552734,0,1-0.447754,1-1s-0.447266-1-1-1h-12.05957c-0.552734,0-1,0.447754-1,1  S24.662109,66.237793,25.214844,66.237793z"></path><path d="M25.214844,61.964844h12.05957c0.552734,0,1-0.447754,1-1s-0.447266-1-1-1h-12.05957c-0.552734,0-1,0.447754-1,1  S24.662109,61.964844,25.214844,61.964844z"></path><path d="M52.725586,57.691895h12.05957c0.552734,0,1-0.447754,1-1s-0.447266-1-1-1h-12.05957c-0.552734,0-1,0.447754-1,1  S52.172852,57.691895,52.725586,57.691895z"></path><path d="M52.725586,66.237793h12.05957c0.552734,0,1-0.447754,1-1s-0.447266-1-1-1h-12.05957c-0.552734,0-1,0.447754-1,1  S52.172852,66.237793,52.725586,66.237793z"></path><path d="M52.725586,61.964844h12.05957c0.552734,0,1-0.447754,1-1s-0.447266-1-1-1h-12.05957c-0.552734,0-1,0.447754-1,1  S52.172852,61.964844,52.725586,61.964844z"></path></svg>