<svg xmlns="http://www.w3.org/2000/svg" xmlns:xlink="http://www.w3.org/1999/xlink" version="1.1" x="0px" y="0px" viewBox="0 0 100 100" enable-background="new 0 0 100 100" xml:space="preserve"><g><path d="M93.724,57.346l-0.329-0.179c-1.603-0.873-3.043-1.655-4.504-2.338c0-0.045,0.002-0.092,0.002-0.137   c0-7.451-2.842-14.741-8.012-20.644l0.463-13.418c0.088-2.893-1.014-5.262-3.023-6.5c-1.875-1.156-4.266-1.114-6.562,0.117   c-0.052,0.028-0.103,0.058-0.153,0.09l-11.761,7.484c-6.484-1.476-13.346-1.465-19.803,0.026l-11.799-7.51   c-0.05-0.032-0.101-0.061-0.152-0.089c-2.292-1.23-4.681-1.273-6.556-0.119c-2.01,1.238-3.113,3.608-3.024,6.502   c0,0.016,0,0.032,0.001,0.048l0.674,13.292c-5.212,5.915-8.078,13.232-8.078,20.723c0,0.045,0.001,0.092,0.002,0.137   c-1.463,0.684-2.902,1.467-4.504,2.338l-0.329,0.179c-1.154,0.628-1.58,2.07-0.95,3.221c0.432,0.79,1.249,1.237,2.092,1.237   c0.385,0,0.776-0.093,1.138-0.29l0.33-0.18c0.946-0.514,1.828-0.992,2.685-1.434c0.204,1.13,0.477,2.243,0.817,3.335   c-1.518,0.707-3.01,1.516-4.655,2.412l-0.267,0.146c-1.154,0.628-1.579,2.07-0.949,3.221c0.433,0.79,1.249,1.237,2.092,1.237   c0.385,0,0.777-0.093,1.139-0.291l0.268-0.146c1.539-0.838,2.866-1.558,4.164-2.174C20.084,79.3,33.842,86.708,50,86.708   c16.159,0,29.917-7.41,35.82-19.067c1.299,0.616,2.625,1.336,4.164,2.173l0.268,0.146c0.362,0.197,0.753,0.291,1.139,0.291   c0.843,0,1.66-0.447,2.092-1.237c0.63-1.151,0.205-2.593-0.949-3.221l-0.267-0.146c-1.645-0.896-3.136-1.704-4.655-2.412   c0.34-1.093,0.613-2.206,0.817-3.335c0.856,0.441,1.738,0.919,2.685,1.434l0.33,0.18c0.363,0.197,0.753,0.29,1.138,0.29   c0.843,0,1.661-0.447,2.092-1.237C95.303,59.416,94.878,57.974,93.724,57.346z M50,81.96c-14.115,0-26.086-6.194-31.319-15.982   c0.892-0.231,1.815-0.417,2.806-0.562c1.301-0.19,2.201-1.396,2.01-2.693c-0.191-1.297-1.401-2.195-2.702-2.004   c-1.396,0.204-2.683,0.486-3.937,0.842c-0.351-1.178-0.61-2.386-0.773-3.617c1.315-0.432,2.669-0.745,4.216-0.975   c1.301-0.193,2.198-1.401,2.004-2.698c-0.194-1.296-1.404-2.189-2.707-1.998c-1.297,0.193-2.506,0.443-3.67,0.76   c0.392-6.085,2.935-11.792,7.425-16.593l-0.002-0.002c0.424-0.454,0.673-1.068,0.64-1.737l-0.723-14.237   c-0.036-1.323,0.391-2.064,0.769-2.297c0.518-0.319,1.333,0.023,1.726,0.224l12.554,7.99l3.903,2.573   c0.404,0.267,0.86,0.393,1.311,0.393c0.772,0,1.531-0.374,1.989-1.064c0.531-0.8,0.506-1.802,0.028-2.566   c2.903-0.325,5.851-0.331,8.761-0.015c-0.487,0.766-0.514,1.775,0.02,2.581c0.458,0.69,1.216,1.064,1.988,1.064   c0.451,0,0.907-0.127,1.312-0.394l3.942-2.598l12.515-7.963c0.393-0.202,1.211-0.544,1.73-0.224   c0.38,0.234,0.809,0.982,0.768,2.309l-0.49,14.196c-0.065,0.67,0.166,1.34,0.625,1.837l-0.006,0.006   c4.449,4.787,6.968,10.469,7.358,16.518c-1.164-0.318-2.373-0.567-3.67-0.76c-1.3-0.192-2.513,0.701-2.706,1.998   c-0.194,1.297,0.703,2.505,2.004,2.698c1.546,0.23,2.899,0.542,4.216,0.975c-0.163,1.23-0.422,2.438-0.773,3.617   c-1.253-0.356-2.54-0.638-3.937-0.842c-1.302-0.192-2.511,0.707-2.702,2.004c-0.191,1.297,0.709,2.503,2.01,2.693   c0.991,0.146,1.915,0.331,2.807,0.562C76.088,75.764,64.116,81.96,50,81.96z"></path><g><g><g><ellipse cx="63.176" cy="49.882" rx="5.148" ry="5.133"></ellipse></g></g><g><g><ellipse cx="36.824" cy="49.882" rx="5.148" ry="5.133"></ellipse></g></g></g><g><g><path d="M50,68.008c-4.466,0-8.658-2.383-10.94-6.218c-0.671-1.127-0.298-2.584,0.833-3.253c1.131-0.669,2.591-0.297,3.262,0.83     c1.429,2.401,4.052,3.893,6.845,3.893c2.794,0,5.417-1.492,6.845-3.893c0.67-1.127,2.131-1.499,3.262-0.83     c1.131,0.669,1.504,2.125,0.833,3.253C58.659,65.625,54.467,68.008,50,68.008z"></path></g></g></g></svg>