<svg xmlns="http://www.w3.org/2000/svg" xmlns:xlink="http://www.w3.org/1999/xlink" version="1.1" x="0px" y="0px" viewBox="0 0 90 90" style="enable-background:new 0 0 90 90;" xml:space="preserve"><path d="M77.502441,71.605957h-0.491699V44.546875c0-0.446777-0.295898-0.838867-0.725586-0.961426l-4.720459-1.347168  l-2.755615-30.108398c-0.046875-0.514648-0.478516-0.908691-0.995605-0.908691h-4.978027  c-0.51709,0-0.94873,0.394043-0.995605,0.908691l-2.437866,26.637329l-3.175354-0.906189l-2.354553-25.73114  c-0.046875-0.514648-0.478516-0.908691-0.995605-0.908691h-4.978027c-0.51709,0-0.94873,0.394043-0.995605,0.908691  l-2.057556,22.483032l-9.80426-2.797974c-0.245117-0.070801-0.509277-0.043945-0.73584,0.074219L13.527832,42.693359  c-0.331055,0.171875-0.538574,0.51416-0.538574,0.887207v28.025391h-0.491699c-0.552246,0-1,0.447754-1,1v5.172852  c0,0.552246,0.447754,1,1,1h65.004883c0.552246,0,1-0.447754,1-1v-5.172852  C78.502441,72.053711,78.054688,71.605957,77.502441,71.605957z M63.748047,13.221191h3.152832l0.301819,3.297363h-3.75647  L63.748047,13.221191z M63.263184,18.518555h4.122559l2.117188,23.131348l-8.144104-2.324219L63.263184,18.518555z   M48.811035,13.221191h3.152832l0.301758,3.297363h-3.756348L48.811035,13.221191z M48.326233,18.518555h4.122375  l1.716248,18.754089l-7.362793-2.101257L48.326233,18.518555z M14.989258,44.1875L34.875,33.847168l35.215454,10.049927  c0.159912,0.107117,0.342712,0.182007,0.546265,0.182007c0.025696,0,0.052002-0.001587,0.07843-0.003723l4.295593,1.225891  v26.304688h-4.45752V48.536133c0-0.552246-0.447754-1-1-1H20.446777c-0.552246,0-1,0.447754-1,1v23.069824h-4.45752V44.1875z   M65.378418,51.004883H49.186523c-0.552246,0-1,0.447754-1,1v19.601074h-2.316895V49.536133h22.683594v22.069824h-2.174805  V52.004883C66.378418,51.452637,65.930664,51.004883,65.378418,51.004883z M50.186523,67.48584v-2.120605h14.191895v2.120605  H50.186523z M64.378418,69.48584v2.120117H50.186523V69.48584H64.378418z M50.186523,63.365234v-2.120117h14.191895v2.120117  H50.186523z M50.186523,59.245117V57.125h14.191895v2.120117H50.186523z M50.186523,55.125v-2.120117h14.191895V55.125H50.186523z   M43.869629,49.536133v22.069824H21.446777V49.536133H43.869629z M76.502441,76.778809H13.497559v-3.172852h63.004883V76.778809z"></path></svg>