<svg xmlns="http://www.w3.org/2000/svg" xmlns:xlink="http://www.w3.org/1999/xlink" version="1.1" x="0px" y="0px" viewBox="0 0 100 100" style="enable-background:new 0 0 100 100;" xml:space="preserve"><path d="M89,88h-2.3154297V59.3046875c0-0.5522461-0.4472656-1-1-1H66.0673828V50c0-0.5522461-0.4472656-1-1-1h-2.0078125  V33.7011719H67.625c0.3408203,0,0.6582031-0.1738281,0.8417969-0.4609375  c0.1845703-0.2871094,0.2089844-0.6479492,0.0664062-0.9575195l-10-21.7011719C58.3701172,10.2270508,58.015625,10,57.625,10h-15.25  c-0.390625,0-0.7451172,0.2270508-0.9082031,0.581543l-10,21.7011719c-0.1425781,0.3095703-0.1181641,0.6704102,0.0664062,0.9575195  c0.1835938,0.2871094,0.5009766,0.4609375,0.8417969,0.4609375h4.5654297V49h-2.0078125c-0.5527344,0-1,0.4477539-1,1v8.3046875  H14.3154297c-0.5527344,0-1,0.4477539-1,1V88H11c-0.5527344,0-1,0.4477539-1,1s0.4472656,1,1,1h78c0.5527344,0,1-0.4477539,1-1  S89.5527344,88,89,88z M84.6845703,60.3046875V88H66.0673828V60.3046875H84.6845703z M43.015625,12h13.96875l9.0791016,19.7011719  H33.9365234L43.015625,12z M38.9404297,33.7011719h22.1191406V49H38.9404297V33.7011719z M64.0673828,51v37h-6.0888672V74.2524414  c0-0.5522461-0.4472656-1-1-1H43.0214844c-0.5527344,0-1,0.4477539-1,1V88h-6.0888672V51H64.0673828z M55.9785156,88H44.0214844  V75.2524414h11.9570312V88z M15.3154297,60.3046875h18.6171875V88H15.3154297V60.3046875z"></path><path d="M42.234375,65.5947266c0.5527344,0,1-0.4477539,1-1v-6.9833984c0-0.5522461-0.4472656-1-1-1s-1,0.4477539-1,1v6.9833984  C41.234375,65.1469727,41.6816406,65.5947266,42.234375,65.5947266z"></path><path d="M50,65.5947266c0.5527344,0,1-0.4477539,1-1v-6.9833984c0-0.5522461-0.4472656-1-1-1s-1,0.4477539-1,1v6.9833984  C49,65.1469727,49.4472656,65.5947266,50,65.5947266z"></path><path d="M20.5712891,70.4116211c-0.5527344,0-1,0.4477539-1,1v6.9833984c0,0.5522461,0.4472656,1,1,1s1-0.4477539,1-1v-6.9833984  C21.5712891,70.859375,21.1240234,70.4116211,20.5712891,70.4116211z"></path><path d="M28.3369141,70.4116211c-0.5527344,0-1,0.4477539-1,1v6.9833984c0,0.5522461,0.4472656,1,1,1s1-0.4477539,1-1v-6.9833984  C29.3369141,70.859375,28.8896484,70.4116211,28.3369141,70.4116211z"></path><path d="M71.6630859,79.3950195c0.5527344,0,1-0.4477539,1-1v-6.9833984c0-0.5522461-0.4472656-1-1-1s-1,0.4477539-1,1v6.9833984  C70.6630859,78.9472656,71.1103516,79.3950195,71.6630859,79.3950195z"></path><path d="M79.4287109,79.3950195c0.5527344,0,1-0.4477539,1-1v-6.9833984c0-0.5522461-0.4472656-1-1-1s-1,0.4477539-1,1v6.9833984  C78.4287109,78.9472656,78.8759766,79.3950195,79.4287109,79.3950195z"></path><path d="M57.765625,65.5947266c0.5527344,0,1-0.4477539,1-1v-6.9833984c0-0.5522461-0.4472656-1-1-1s-1,0.4477539-1,1v6.9833984  C56.765625,65.1469727,57.2128906,65.5947266,57.765625,65.5947266z"></path></svg>