<svg xmlns:dc="http://purl.org/dc/elements/1.1/" xmlns:cc="http://creativecommons.org/ns#" xmlns:rdf="http://www.w3.org/1999/02/22-rdf-syntax-ns#" xmlns:svg="http://www.w3.org/2000/svg" xmlns="http://www.w3.org/2000/svg" xmlns:sodipodi="http://sodipodi.sourceforge.net/DTD/sodipodi-0.dtd" xmlns:inkscape="http://www.inkscape.org/namespaces/inkscape" viewBox="0 0 12.7 12.7" version="1.1" x="0px" y="0px"><g transform="translate(0,-284.29999)"><g transform="matrix(0.90261152,0,0,0.90261152,2924.4464,-298.10207)" style="" fill="#000000"><path d="m -3232.1193,656.88863 h 1.2611 v -0.72201 h -1.2611 z" style="" fill="#000000" stroke="none"></path><path d="m -3232.316,656.16662 h -1.261 v 0.72201 h 1.261 z" style="" fill="#000000" stroke="none"></path><path d="m -3233.7737,656.16662 h -1.2611 v 0.72201 h 1.2611 z" style="" fill="#000000" stroke="none"></path><path d="m -3234.3059,655.97038 v -0.72202 h 1.2611 v 0.72202 z" style="" fill="#000000" stroke="none"></path><path d="m -3232.8482,655.97038 v -0.72202 h 1.2611 v 0.72202 z" style="" fill="#000000" stroke="none"></path><path d="m -3231.5871,657.80688 v -0.72201 h -1.2611 v 0.72201 z" style="" fill="#000000" stroke="none"></path><path d="m -3233.0448,657.08487 v 0.72201 h -1.2611 v -0.72201 z" style="" fill="#000000" stroke="none"></path><path d="m -3232.316,658.00312 v 0.72201 h -1.261 v -0.72201 z" style="" fill="#000000" stroke="none"></path><path d="m -3228.904,655.7294 -0.2427,-2.40383 a 0.99658821,0.99658821 0 0 0 -0.8593,-0.88771 l -0.01,-10e-4 v 3.98777 h 0.4823 a 0.6316848,0.6316848 0 0 0 0.6282,-0.69515 z" style="" fill="#000000" stroke="none"></path><path d="m -3232.4646,653.01844 a 1.5103706,1.5103706 0 0 0 0.7458,-0.71667 0.46302541,0.46302541 0 0 0 0.033,-0.0881 l 0.5529,0.0739 v 2.11596 h -3.6274 v -2.11596 l 0.5536,-0.0739 a 0.46302541,0.46302541 0 0 0 0.032,0.0881 1.5103706,1.5103706 0 0 0 0.7457,0.71667 1.1928322,1.1928322 0 0 0 0.9638,0 z" style="" fill="#000000" stroke="none"></path><path d="m -3236.3607,656.42455 h 0.4822 v -3.98777 l -0.01,10e-4 a 0.99658821,0.99658821 0 0 0 -0.86,0.88771 l -0.2427,2.40383 a 0.6316848,0.6316848 0 0 0 0.6283,0.69515 z" style="" fill="#000000" stroke="none"></path><path d="m -3235.6825,652.21747 0.7263,-0.10288 v 2.31346 a 0.1717135,0.1717135 0 0 0 0.1713,0.17172 h 3.6768 a 0.1717135,0.1717135 0 0 0 0.172,-0.17172 v -2.30038 a 0.01134905,0.01134905 0 0 1 0.013,-0.0113 l 0.7029,0.0997 a 0.01134905,0.01134905 0 0 1 0.01,0.0112 v 4.19722 h -0.4511 v -0.45417 h -0.7288 v -0.91826 h -3.1122 v 0.91826 h -0.7288 v 0.45417 h -0.4511 z" style="" fill="#000000" stroke="none"></path><path d="m -3232.155,651.51666 a 1.0592303,1.0592303 0 0 1 0.2817,0.52677 0.2667814,0.2667814 0 0 1 -0.021,0.17193 1.3141266,1.3141266 0 0 1 -0.6491,0.62355 0.99658821,0.99658821 0 0 1 -0.8048,0 1.3141266,1.3141266 0 0 1 -0.6497,-0.62355 0.2667814,0.2667814 0 0 1 -0.021,-0.17193 1.0592303,1.0592303 0 0 1 0.2817,-0.52677 2.0429056,2.0429056 0 0 0 1.583,0 z" style="" fill="#000000" stroke="none"></path><path d="m -3231.0997,648.89853 h -3.6936 v 0.7347 a 1.8468325,1.8468325 0 0 0 3.6936,0 z" style="" fill="#000000" stroke="none"></path><path d="m -3235.1821,648.25591 a 0.15650658,0.15650658 0 0 1 -0.1545,0.13466 h -0.01 v 0.31172 h 4.801 v -0.31172 h -0.01 a 0.15650658,0.15650658 0 0 1 -0.1551,-0.13466 2.5624646,2.5624646 0 0 0 -1.6018,-2.02799 v 1.76671 a 0.09835,0.09835 0 0 1 -0.1967,0 v -2.16726 h -0.8742 v 2.16726 a 0.09812201,0.09812201 0 0 1 -0.196,0 v -1.76671 a 2.5624646,2.5624646 0 0 0 -1.6025,2.02799 z" style="" fill="#000000" stroke="none"></path></g></g></svg>