<svg xmlns="http://www.w3.org/2000/svg" xmlns:xlink="http://www.w3.org/1999/xlink" version="1.1" x="0px" y="0px" viewBox="0 0 90 90" style="enable-background:new 0 0 90 90;" xml:space="preserve"><path d="M9.058594,81.071289h71.882813c0.552246,0,1-0.447754,1-1v-4.306641c0-0.552246-0.447754-1-1-1h-0.02832v-9.981445  c0-0.552246-0.447754-1-1-1h-1.341614c-0.404541-13.489136-8.915894-25.514526-21.52655-30.361572v-3.604736  c0-0.266113-0.105957-0.520996-0.294434-0.708496l-9.121094-9.084473v-2.219238h2.617188c0.552246,0,1-0.447754,1-1V13.54541  c0-0.552246-0.447754-1-1-1h-2.617188V9.928711c0-0.552246-0.447754-1-1-1h-3.258789c-0.552246,0-1,0.447754-1,1v2.616699h-2.617188  c-0.552246,0-1,0.447754-1,1v3.259277c0,0.552246,0.447754,1,1,1h2.617188v2.219238l-9.121094,9.084473  c-0.188477,0.1875-0.294434,0.442383-0.294434,0.708496v3.604736c-12.610657,4.847046-21.122009,16.872437-21.52655,30.361572  h-1.341614c-0.552246,0-1,0.447754-1,1v9.981445h-0.02832c-0.552246,0-1,0.447754-1,1v4.306641  C8.058594,80.623535,8.506348,81.071289,9.058594,81.071289z M57.044922,35.578003  c11.446289,4.725525,19.131042,15.800476,19.52655,28.2052h-19.52655V35.578003z M57.044922,65.783203h21.868164v8.981445H57.044922  V65.783203z M34.955078,30.232422l9.138672-9.102051c0.226563-0.225586,0.322754-0.541504,0.276855-0.848633v-3.477051  c0-0.552246-0.447754-1-1-1h-2.617188V14.54541h2.617188c0.552246,0,1-0.447754,1-1v-2.616699h1.258789v2.616699  c0,0.552246,0.447754,1,1,1h2.617188v1.259277h-2.617188c-0.552246,0-1,0.447754-1,1v3.430176  c-0.061035,0.321777,0.038574,0.658691,0.276855,0.895508l9.138672,9.102051v44.532227h-3.813965V51.762695  c0-3.436035-2.79541-6.231445-6.230957-6.231445s-6.230957,2.79541-6.230957,6.231445v23.001953h-3.813965V30.232422z   M49.230957,51.762695v23.001953H46V47.663513C47.849548,48.115845,49.230957,49.775818,49.230957,51.762695z M44,47.663513  v27.101135h-3.230957V51.762695C40.769043,49.775818,42.150452,48.115845,44,47.663513z M32.955078,35.578003v28.2052h-19.52655  C13.824036,51.378479,21.508789,40.303528,32.955078,35.578003z M11.086914,65.783203h21.868164v8.981445H11.086914V65.783203z   M10.058594,76.764648h69.882813v2.306641H10.058594V76.764648z"></path><path d="M40.52002,40.73291h8.959961c0.552246,0,1-0.447754,1-1v-4.923828c0-3.021484-2.458496-5.47998-5.47998-5.47998  s-5.47998,2.458496-5.47998,5.47998v4.923828C39.52002,40.285156,39.967773,40.73291,40.52002,40.73291z M46,31.493042  c1.429626,0.432861,2.47998,1.747009,2.47998,3.31604v0.205078H46V31.493042z M46,37.01416h2.47998v1.71875H46V37.01416z   M41.52002,34.809082c0-1.569031,1.050415-2.88324,2.47998-3.31604v3.521118h-2.47998V34.809082z M41.52002,37.01416H44v1.71875  h-2.47998V37.01416z"></path><path d="M65.569824,45.515137c-0.272461-0.231934-0.550293-0.456543-0.834473-0.673828  c-0.437988-0.334961-1.064941-0.25293-1.401855,0.186035c-0.335938,0.438965-0.252441,1.066406,0.186035,1.401855  c0.256836,0.196777,0.508301,0.399414,0.754395,0.609375c0.187988,0.160156,0.418457,0.238281,0.647461,0.238281  c0.282715,0,0.563965-0.119629,0.762207-0.352051C66.041504,46.504395,65.990723,45.873535,65.569824,45.515137z"></path><path d="M72.141113,56.435059c-0.729004-3.306152-2.306641-6.400391-4.562988-8.948242  c-0.366211-0.412598-0.997559-0.451172-1.411621-0.085449c-0.413574,0.366211-0.45166,0.998047-0.085449,1.411621  c2.030762,2.293457,3.451172,5.077637,4.106934,8.052734c0.103027,0.466797,0.516602,0.784668,0.975586,0.784668  c0.071289,0,0.143555-0.007324,0.216309-0.023438C71.918945,57.507813,72.259766,56.974609,72.141113,56.435059z"></path></svg>