<svg xmlns="http://www.w3.org/2000/svg" xmlns:xlink="http://www.w3.org/1999/xlink" version="1.1" x="0px" y="0px" viewBox="0 0 64 64" style="enable-background:new 0 0 64 64;" xml:space="preserve"><g><g><path d="M59,43v3c0,1.3-0.8,2.4-2,2.8V47c0-0.6-0.4-1-1-1s-1,0.4-1,1v1.8c-1.2-0.4-2-1.5-2-2.8v-3c0-1.7,1.3-3,3-3S59,41.3,59,43z    "></path><path d="M11,43v3c0,1.3-0.8,2.4-2,2.8V47c0-0.6-0.4-1-1-1s-1,0.4-1,1v1.8c-1.2-0.4-2-1.5-2-2.8v-3c0-1.7,1.3-3,3-3S11,41.3,11,43z    "></path><path d="M34.8,46h-5.7c0.4-1.2,1.5-2,2.8-2S34.4,44.8,34.8,46z"></path><path d="M17,9v40h10v-2c0-2.8,2.2-5,5-5s5,2.2,5,5v2h10V9H17z M29,40c0,0.6-0.4,1-1,1h-6c-0.6,0-1-0.4-1-1v-7c0-2.2,1.8-4,4-4    s4,1.8,4,4V40z M29,24c0,0.6-0.4,1-1,1h-6c-0.6,0-1-0.4-1-1v-7c0-2.2,1.8-4,4-4s4,1.8,4,4V24z M43,40c0,0.6-0.4,1-1,1h-6    c-0.6,0-1-0.4-1-1v-7c0-2.2,1.8-4,4-4s4,1.8,4,4V40z M43,24c0,0.6-0.4,1-1,1h-6c-0.6,0-1-0.4-1-1v-7c0-2.2,1.8-4,4-4s4,1.8,4,4V24    z"></path><path d="M41,33h-4c0-1.1,0.9-2,2-2S41,31.9,41,33z"></path><rect x="37" y="35" width="4" height="4"></rect><rect x="23" y="35" width="4" height="4"></rect><path d="M27,33h-4c0-1.1,0.9-2,2-2S27,31.9,27,33z"></path><path d="M41,17h-4c0-1.1,0.9-2,2-2S41,15.9,41,17z"></path><rect x="37" y="19" width="4" height="4"></rect><rect x="23" y="19" width="4" height="4"></rect><path d="M27,17h-4c0-1.1,0.9-2,2-2S27,15.9,27,17z"></path><rect x="16" y="6" width="32" height="1"></rect><rect x="7" y="50" width="2" height="5"></rect><polygon points="55,56 54,56 48,56 48,51 37,51 37,56 35,56 35,48 33,48 33,56 31,56 31,48 29,48 29,56 27,56 27,51 16,51 16,56     11,56 9,56 7,56 7,58 57,58 57,56   "></polygon><rect x="55" y="50" width="2" height="5"></rect></g></g></svg>