<svg xmlns="http://www.w3.org/2000/svg" xmlns:xlink="http://www.w3.org/1999/xlink" version="1.1" x="0px" y="0px" viewBox="0 0 100 100" enable-background="new 0 0 100 100" xml:space="preserve"><path d="M62.981,33.725c-1.235-0.837-2.566-1.538-3.956-2.086c-1.633-0.644-3.333-1.053-5.069-1.259v-3.965  c0-1.347-1.09-2.434-2.437-2.434c-1.341,0-2.431,1.087-2.431,2.434v3.954c-10.005,1.17-17.79,9.521-17.79,19.631  c0,10.113,7.785,18.466,17.79,19.635v3.954c0,1.344,1.09,2.436,2.431,2.436c1.347,0,2.437-1.092,2.437-2.436v-3.948  c2.431-0.295,4.803-1.016,6.962-2.136c1.197-0.618,1.661-2.086,1.041-3.279c-0.615-1.192-2.082-1.66-3.277-1.044  c-2.228,1.153-4.639,1.738-7.182,1.738h-0.005c-8.455,0-15.326-6.693-15.326-14.92c0-8.223,6.871-14.916,15.326-14.916  c1.986,0,3.923,0.365,5.743,1.084c1.056,0.415,2.067,0.95,3.008,1.586c1.113,0.754,2.624,0.467,3.38-0.648  C64.38,35.995,64.09,34.48,62.981,33.725z M50,3.187c-25.288,0-45.861,20.573-45.861,45.861S24.712,94.909,50,94.909  s45.861-20.573,45.861-45.861S75.288,3.187,50,3.187z M50,89.909c-22.531,0-40.861-18.33-40.861-40.861S27.469,8.187,50,8.187  s40.861,18.33,40.861,40.861S72.531,89.909,50,89.909z"></path></svg>