<svg xmlns="http://www.w3.org/2000/svg" xmlns:xlink="http://www.w3.org/1999/xlink" version="1.1" x="0px" y="0px" viewBox="0 0 100 100" style="enable-background:new 0 0 100 100;" xml:space="preserve"><g><g><path d="M50.3,60h-0.6c-2.8,0-5.4-0.7-7.7-1.8v3.7c0,0.8-0.5,1.6-1.1,2.1l9.1,5.8l9.1-5.8c-0.6-0.6-1.1-1.3-1.1-2.1v-3.7    C55.7,59.3,53.1,60,50.3,60z"></path><path d="M66,42.3V38H34v4.3C34,51,41,58,49.7,58h0.6C59,58,66,51,66,42.3z M44,45c-0.6,0-1-0.4-1-1c0-1.1-0.9-2-2-2s-2,0.9-2,2    c0,0.6-0.4,1-1,1s-1-0.4-1-1c0-2.2,1.8-4,4-4s4,1.8,4,4C45,44.6,44.6,45,44,45z M54.7,53.7c-1.1,1.2-2.9,1.9-4.7,1.9    s-3.6-0.7-4.7-1.9c-0.4-0.4-0.4-1,0.1-1.4c0.4-0.4,1-0.4,1.4,0.1c0.8,0.8,2,1.3,3.3,1.3s2.5-0.5,3.3-1.3c0.4-0.4,1-0.4,1.4-0.1    C55.1,52.6,55.1,53.3,54.7,53.7z M61,44c0-1.1-0.9-2-2-2s-2,0.9-2,2c0,0.6-0.4,1-1,1s-1-0.4-1-1c0-2.2,1.8-4,4-4s4,1.8,4,4    c0,0.6-0.4,1-1,1S61,44.6,61,44z"></path><path d="M56,27c0,1.5-0.6,2.9-1.5,4H67v-2.1c0-4.7-2.4-8.9-6-11.4V23c0,0.6-0.4,1-1,1s-1-0.4-1-1v-6.6c-1.5-0.7-3.2-1.2-5-1.3v7.5    C55.2,23.6,56,25.2,56,27z"></path><path d="M52,21.4v-8.8c0-0.3-0.3-0.5-0.8-0.5h-2.4c-0.5,0-0.8,0.3-0.8,0.5v8.8c0.6-0.2,1.3-0.4,2-0.4S51.4,21.1,52,21.4z"></path><circle cx="50" cy="27" r="4"></circle><path d="M44,27c0-1.8,0.8-3.4,2-4.5v-7.5c-1.8,0.1-3.5,0.6-5,1.3V23c0,0.6-0.4,1-1,1s-1-0.4-1-1v-5.5c-3.6,2.5-6,6.7-6,11.4V31    h12.5C44.6,29.9,44,28.5,44,27z"></path><path d="M30.3,36H32h1h34h1h1.8c0.1,0,0.3-0.1,0.3-0.3v-2.5c0-0.1-0.1-0.3-0.3-0.3H68H32h-1.8c-0.1,0-0.3,0.1-0.3,0.3v2.5    C30,35.9,30.1,36,30.3,36z"></path><path d="M68,38v4.3V43c1.1,0,2-0.9,2-2v-1C70,38.9,69.1,38,68,38z"></path><rect x="59" y="83" width="10" height="5"></rect><path d="M61.3,65.2c-0.1,0-0.1,0-0.2-0.1l-10.5,6.7C50.4,71.9,50.2,72,50,72s-0.4-0.1-0.5-0.2l-10.5-6.7c-0.1,0-0.2,0.1-0.2,0.1    l-3.5,1L50,75.8l14.8-9.6L61.3,65.2z"></path><path d="M51,77.5V88h6v-6c0-0.6,0.4-1,1-1h12c0.6,0,1,0.4,1,1v6h5V69.4l-8.6-2.4L51,77.5z"></path><path d="M86.1,74.3c-0.8-1.6-2.3-2.7-4-3.2L78,69.9V88h15.3L86.1,74.3z"></path><path d="M24,69.4V88h5v-6c0-0.6,0.4-1,1-1h12c0.6,0,1,0.4,1,1v6h6V77.5L32.6,66.9L24,69.4z"></path><path d="M13.9,74.3L6.7,88H22V69.9l-4.2,1.2C16.1,71.6,14.7,72.7,13.9,74.3z"></path><path d="M32,43v-0.7V38c-1.1,0-2,0.9-2,2v1C30,42.1,30.9,43,32,43z"></path><rect x="31" y="83" width="10" height="5"></rect></g></g></svg>