<svg xmlns="http://www.w3.org/2000/svg" xmlns:xlink="http://www.w3.org/1999/xlink" version="1.1" x="0px" y="0px" viewBox="0 0 100 100" enable-background="new 0 0 100 100" xml:space="preserve"><path d="M53,50.982h-1.755v5.19H53c1.43,0,2.595-1.164,2.595-2.596C55.595,52.147,54.43,50.982,53,50.982z M45.877,49.02h3.404  v-5.19h-3.404V49.02z M53,43.829h-1.755v5.19H53c1.43,0,2.595-1.164,2.595-2.595C55.595,44.992,54.43,43.829,53,43.829z   M45.877,56.173h3.404v-5.19h-3.404V56.173z M56.569,33.66c-2.03-0.816-4.247-1.266-6.569-1.266  c-8.982,0-16.394,6.728-17.472,15.419c-0.088,0.717-0.135,1.446-0.135,2.188c0,9.725,7.884,17.604,17.606,17.604  c9.726,0,17.606-7.88,17.606-17.604C67.606,42.6,63.041,36.263,56.569,33.66z M57.558,53.577c0,2.514-2.044,4.559-4.558,4.559  h-1.755v2.57c0,0.541-0.439,0.981-0.981,0.981c-0.543,0-0.982-0.44-0.982-0.981v-2.57h-4.386c-0.542,0-0.981-0.44-0.981-0.981  V42.848c0-0.542,0.439-0.981,0.981-0.981h4.386v-2.571c0-0.543,0.439-0.981,0.982-0.981c0.542,0,0.981,0.438,0.981,0.981v2.571H53  c2.514,0,4.558,2.044,4.558,4.559c0,1.449-0.683,2.741-1.741,3.576C56.875,50.837,57.558,52.128,57.558,53.577z M27.75,50  c0-0.289,0.006-0.578,0.017-0.865l-3.998-0.15C23.756,49.322,23.75,49.66,23.75,50c0,2.531,0.36,5.035,1.071,7.442l3.836-1.133  C28.056,54.271,27.75,52.147,27.75,50z M49.981,27.75H50c1.341,0,2.684,0.12,3.994,0.356l0.711-3.936  c-1.544-0.279-3.127-0.421-4.703-0.421H49.98c-1.269,0-2.545,0.093-3.794,0.274l0.578,3.959  C47.823,27.828,48.905,27.75,49.981,27.75z M31.755,37.263l-3.277-2.295c-1.646,2.353-2.887,4.94-3.688,7.691l3.842,1.117  C29.309,41.446,30.359,39.255,31.755,37.263z M75.448,43.537c-0.703-2.775-1.853-5.404-3.416-7.813l-3.355,2.178  c1.325,2.041,2.299,4.268,2.895,6.618L75.448,43.537z M67.917,30.815c-2.098-1.961-4.483-3.554-7.09-4.734l-1.65,3.643  c2.208,1.001,4.23,2.352,6.01,4.014L67.917,30.815z M41.531,29.417l-1.523-3.697c-2.646,1.09-5.084,2.599-7.249,4.485l2.629,3.016  C37.223,31.621,39.29,30.341,41.531,29.417z M63.879,67.392l2.498,3.125c2.24-1.792,4.162-3.921,5.711-6.328l-3.363-2.164  C67.41,64.066,65.78,65.872,63.879,67.392z M75.332,49.923L72.25,50c0,2.443-0.393,4.843-1.168,7.134l3.789,1.281  c0.915-2.703,1.379-5.535,1.378-8.473L75.332,49.923z M30.821,61.287l-3.445,2.031c1.454,2.466,3.291,4.668,5.461,6.544l2.617-3.025  C33.612,65.245,32.055,63.378,30.821,61.287z M52.289,72.134l0.406,3.979c2.857-0.291,5.626-1.044,8.229-2.237l-1.666-3.637  C57.055,71.249,54.709,71.887,52.289,72.134z M38.158,73.434c2.559,1.296,5.297,2.156,8.139,2.558l0.559-3.961  c-2.405-0.34-4.724-1.068-6.891-2.165L38.158,73.434z"></path></svg>