<svg xmlns="http://www.w3.org/2000/svg" xmlns:xlink="http://www.w3.org/1999/xlink" version="1.1" x="0px" y="0px" viewBox="0 0 1024 1024" style="enable-background:new 0 0 1024 1024;" xml:space="preserve"><g><g><g><path d="M448.3,541.3c-26.7-26.9-53.5-53.8-80.2-80.8c-42.4-42.6-84.7-85.3-127.1-127.9     c-9.8-9.9-19.6-19.7-29.4-29.6c0,14.1,0,28.3,0,42.4c26.8-26.6,53.6-53.2,80.3-79.8c42.4-42.1,84.8-84.2,127.1-126.3     c9.7-9.7,19.5-19.4,29.2-29c11.2-11.1,11.9-31.5,0-42.4c-12-11-30.5-11.8-42.4,0c-26.8,26.6-53.6,53.2-80.3,79.8     c-42.4,42.1-84.8,84.2-127.1,126.3c-9.7,9.7-19.5,19.4-29.2,29c-11.5,11.4-11.4,30.9,0,42.4c26.7,26.9,53.5,53.8,80.2,80.8     c42.4,42.6,84.7,85.3,127.1,127.9c9.8,9.9,19.6,19.7,29.4,29.6c11.1,11.1,31.5,11.9,42.4,0C459.3,571.8,460.1,553.2,448.3,541.3     L448.3,541.3z"></path></g></g><g><g><path d="M191.1,354.3c14.4,0,28.8,0,43.3,0.1c34.2,0,68.3,0.1,102.5,0.1c40.4,0.1,80.8,0.1,121.2,0.2     c32.5,0,65,0.1,97.5,0.1c18.1,0,36.4-0.5,54.5,0.7c6.9,0.4,13.8,1.1,20.7,2c-2.7-0.4-5.3-0.7-8-1.1c26.4,3.6,52.3,10.6,76.9,20.9     c-2.4-1-4.8-2-7.2-3c14.3,6,28.1,13.1,41.4,21.2c6.4,3.9,12.6,8.1,18.7,12.4c1.4,1,2.9,2.1,4.3,3.1c0.9,0.7,1.7,1.3,2.6,2     c2.8,2.1-5.7-4.4-2.9-2.3c3.1,2.5,6.2,4.9,9.2,7.5c11.6,9.8,22.4,20.4,32.4,31.8c2.5,2.8,4.9,5.7,7.2,8.5     c1.1,1.4,2.2,2.7,3.3,4.1c0.8,1,2.8,3.6-0.3-0.4c-3.5-4.5-0.3-0.4,0.5,0.6c4.6,6.2,9,12.5,13.1,19c9.3,14.6,17.3,29.9,24,45.8     c-1-2.4-2-4.8-3-7.2c10.3,24.6,17.3,50.4,20.9,76.9c-0.4-2.7-0.7-5.3-1.1-8c3.5,26.8,3.5,53.9,0,80.7c0.4-2.7,0.7-5.3,1.1-8     c-3.6,26.4-10.6,52.3-20.9,76.9c1-2.4,2-4.8,3-7.2c-6,14.3-13.1,28.1-21.2,41.4c-3.9,6.4-8.1,12.6-12.4,18.7     c-1,1.4-2.1,2.9-3.1,4.3c-0.7,0.9-1.3,1.7-2,2.6c-2.1,2.8,4.4-5.7,2.3-2.9c-2.5,3.1-4.9,6.2-7.5,9.2     c-9.8,11.6-20.4,22.4-31.8,32.4c-2.8,2.5-5.7,4.9-8.5,7.2c-1.4,1.1-2.7,2.2-4.1,3.3c-1,0.8-3.6,2.8,0.4-0.3     c4.5-3.5,0.4-0.3-0.6,0.5c-6.2,4.6-12.5,9-19,13.1c-14.6,9.3-29.9,17.3-45.8,24c2.4-1,4.8-2,7.2-3     c-24.6,10.3-50.4,17.3-76.9,20.9c2.7-0.4,5.3-0.7,8-1.1c-24.1,3.2-48.4,2.7-72.6,2.7c-35.8,0-71.6,0-107.4,0     c-46.1,0-92.3,0-138.4,0c-40.9,0-81.8,0-122.7,0c-20.1,0-40.2-0.4-60.2,0c-0.3,0-0.6,0-0.9,0c-15.7,0-30.7,13.8-30,30     c0.7,16.3,13.2,30,30,30c30.2,0,60.5,0,90.7,0c62.5,0,124.9,0,187.4,0c52.2,0,104.4,0,156.7,0c9,0,18,0,27,0     c48-0.1,94.7-10.8,138.5-30.3c85.7-38.2,152-114.5,180.8-203.4c29.6-91.3,16.7-194.6-33.8-276.1     c-49.3-79.7-132.3-138.3-225-154.6c-42.5-7.5-85.8-5.7-128.8-5.7c-61.7-0.1-123.5-0.2-185.2-0.2c-46.2-0.1-92.3-0.1-138.5-0.2     c-2.4,0-4.9,0-7.3,0c-15.7,0-30.7,13.8-30,30C161.9,340.6,174.3,354.3,191.1,354.3L191.1,354.3z"></path></g></g></g></svg>